<?xml version="1.0" standalone="no"?>
<!DOCTYPE svg PUBLIC "-//W3C//DTD SVG 20010904//EN"
 "http://www.w3.org/TR/2001/REC-SVG-20010904/DTD/svg10.dtd">
<svg version="1.0" xmlns="http://www.w3.org/2000/svg"
 width="512.000000pt" height="512.000000pt" viewBox="0 0 512.000000 512.000000"
 preserveAspectRatio="xMidYMid meet">
<metadata>
Created by potrace 1.14, written by Peter Selinger 2001-2017
</metadata>
<g transform="translate(0.000000,512.000000) scale(0.100000,-0.100000)"
fill="#000000" stroke="none">
<path d="M891 4839 c-116 -23 -236 -112 -288 -214 -53 -102 -53 -103 -53 -791
l0 -642 -117 -4 c-108 -3 -124 -6 -186 -35 -77 -37 -163 -116 -197 -183 -51
-101 -50 -63 -50 -1143 l0 -1009 33 -33 c21 -21 47 -35 74 -39 l41 -7 4 -192
c5 -281 0 -277 317 -277 231 0 260 5 299 55 21 26 22 38 22 221 l0 194 1690 0
1690 0 0 -182 c0 -288 0 -288 318 -288 324 0 322 -2 322 281 l0 186 38 7 c20
3 90 6 155 6 l117 0 0 958 c0 1046 2 1009 -57 1110 -27 45 -98 112 -120 112
-7 0 -20 15 -29 33 -66 128 -225 227 -365 227 l-58 0 -3 588 -3 587 -32 65
c-37 75 -63 107 -122 146 -23 15 -51 44 -61 64 -22 44 -99 117 -162 153 -98
58 -48 57 -1678 56 -822 -1 -1515 -5 -1539 -10z m272 -264 c-114 -56 -190
-154 -213 -274 -6 -32 -10 -271 -10 -597 0 -299 -2 -544 -4 -544 -2 0 -23 7
-46 15 -23 8 -56 15 -72 15 l-29 0 3 643 c3 714 0 677 72 732 44 34 94 43 246
44 l125 1 -72 -35z m-518 -1637 c-72 -26 -154 -95 -200 -169 -55 -86 -55 -85
-55 -966 l0 -813 -75 0 -75 0 2 918 3 917 25 35 c56 80 81 88 265 88 112 0
134 -2 110 -10z m3750 -17 c-89 -42 -170 -128 -203 -216 l-12 -30 6 35 c20
113 148 239 244 240 18 0 9 -8 -35 -29z m-3164 -28 c22 -20 47 -50 55 -67 8
-17 9 -22 2 -11 -7 11 -35 41 -62 68 -57 56 -54 63 5 10z"/>
</g>
</svg>
